<?xml version="1.0" standalone="no"?>
<!DOCTYPE svg PUBLIC "-//W3C//DTD SVG 20010904//EN"
 "http://www.w3.org/TR/2001/REC-SVG-20010904/DTD/svg10.dtd">
<svg version="1.0" xmlns="http://www.w3.org/2000/svg"
 width="996.000000pt" height="796.000000pt" viewBox="0 0 996.000000 796.000000"
 preserveAspectRatio="xMidYMid meet">

<g transform="translate(0.000000,796.000000) scale(0.100000,-0.100000)"
fill="#000000" stroke="none">
<path d="M6652 6319 c-7 -22 -21 -53 -31 -67 -10 -15 -45 -70 -77 -122 -32
-52 -71 -111 -86 -131 -15 -20 -28 -40 -28 -45 0 -20 -236 -307 -257 -312 -7
-2 -13 -10 -13 -18 0 -22 -242 -266 -345 -348 -134 -106 -184 -140 -297 -200
-175 -93 -364 -146 -520 -146 -70 0 -79 -2 -68 -15 7 -8 -9 -3 -35 11 l-47 27
-92 -17 c-51 -9 -102 -16 -115 -16 -42 0 -93 -32 -107 -66 -8 -19 -14 -64 -14
-101 0 -111 41 -169 144 -203 51 -16 97 -9 186 30 98 43 217 52 268 21 29 -19
32 -25 32 -68 -1 -27 -5 -67 -9 -90 -10 -51 -2 -54 46 -17 56 42 112 121 129
182 9 32 21 62 27 67 7 7 8 6 3 -2 -4 -8 -1 -13 9 -13 22 0 134 102 129 118
-2 7 1 10 7 6 14 -8 90 66 82 79 -3 6 -1 7 5 3 6 -3 27 8 47 25 30 27 34 34
23 48 -11 14 -11 14 3 4 13 -11 19 -10 33 5 9 10 13 22 9 26 -5 4 -3 7 2 5 17
-4 45 13 45 27 0 8 4 14 8 14 14 0 117 103 114 113 -1 5 2 6 6 3 12 -7 44 28
35 39 -5 4 -3 5 3 2 14 -8 154 134 158 159 2 10 8 19 14 19 17 0 63 52 60 67
-2 7 4 13 12 13 8 0 14 6 13 13 -2 7 1 11 6 9 13 -3 81 85 74 97 -3 5 -1 6 4
3 14 -9 66 60 57 75 -4 7 -3 8 4 4 13 -8 34 27 24 40 -4 5 -3 6 2 2 11 -9 49
38 41 51 -3 5 0 13 6 17 8 4 9 3 5 -4 -4 -7 -5 -12 -3 -12 11 0 57 82 52 91
-4 5 -1 8 7 7 7 -2 12 5 12 14 -1 10 3 15 9 11 6 -4 8 0 4 10 -3 9 -1 19 5 23
7 4 8 3 4 -4 -4 -7 -5 -12 -2 -12 10 0 65 113 59 123 -4 6 -1 7 7 2 10 -6 12
-4 7 9 -4 9 -3 15 2 12 11 -7 23 22 14 36 -4 7 -1 8 7 3 10 -6 12 -4 6 11 -4
10 -4 15 0 11 11 -10 57 104 78 190 20 80 18 117 -2 52z m-42 -169 c0 -5 -5
-10 -11 -10 -5 0 -7 5 -4 10 3 6 8 10 11 10 2 0 4 -4 4 -10z m-119 -233 c-10
-9 -11 -8 -5 6 3 10 9 15 12 12 3 -3 0 -11 -7 -18z m-540 -654 c13 -16 12 -17
-3 -4 -10 7 -18 15 -18 17 0 8 8 3 21 -13z m34 -3 c3 -5 1 -10 -4 -10 -6 0
-11 5 -11 10 0 6 2 10 4 10 3 0 8 -4 11 -10z m-830 -480 c3 -6 -1 -7 -9 -4
-18 7 -21 14 -7 14 6 0 13 -4 16 -10z m110 -68 c-4 -5 -75 37 -75 44 0 3 18
-6 39 -18 22 -12 38 -24 36 -26z"/>
<path d="M2147 6270 c-186 -34 -339 -113 -464 -241 -78 -81 -93 -100 -137
-180 -222 -404 -76 -913 326 -1133 l67 -37 16 30 c15 30 38 38 63 23 9 -7 10
-16 1 -41 -6 -17 -9 -34 -7 -36 14 -14 139 -37 228 -42 238 -12 499 94 651
265 153 172 228 384 216 612 -7 128 -34 227 -92 340 -108 208 -307 366 -535
424 -76 20 -264 29 -333 16z m288 -115 c75 -16 189 -66 257 -113 118 -81 226
-226 273 -363 40 -120 47 -299 15 -415 -57 -208 -184 -366 -372 -464 -209
-109 -457 -108 -671 2 -124 64 -248 191 -311 318 -55 112 -76 201 -76 325 0
122 21 211 76 324 40 81 60 109 138 186 64 63 112 102 161 127 67 35 171 72
225 81 60 10 221 5 285 -8z"/>
<path d="M2261 5867 c-7 -7 -11 -71 -11 -189 0 -149 -3 -183 -16 -204 -32 -47
23 -103 74 -75 28 15 33 47 11 75 -17 22 -19 42 -19 209 0 148 -3 186 -14 190
-7 3 -19 0 -25 -6z"/>
<path d="M8898 6014 c-48 -15 -78 -44 -78 -76 0 -24 -7 -23 -42 7 -33 28 -54
30 -128 13 -55 -13 -95 -45 -102 -82 -3 -13 10 -87 27 -165 l32 -141 -41 -12
c-23 -6 -77 -12 -121 -13 -101 -4 -763 -155 -780 -179 -10 -13 -193 -62 -200
-54 -1 2 -17 66 -34 143 -32 141 -49 181 -78 192 -20 8 -141 -12 -176 -28 -14
-6 -31 -24 -37 -40 l-12 -29 -25 20 c-31 24 -68 24 -147 2 -40 -12 -65 -26
-79 -44 l-20 -27 35 -153 35 -153 -28 -23 c-35 -28 -36 -46 -10 -160 21 -92
41 -122 81 -122 26 0 27 -2 59 -142 18 -79 39 -153 47 -165 20 -31 55 -38 127
-23 72 15 104 32 119 65 l11 24 29 -22 c29 -21 30 -21 111 -5 63 13 87 23 105
43 12 14 22 32 22 39 0 7 -16 80 -35 162 -19 82 -31 151 -27 155 4 3 45 14 92
23 47 10 94 22 105 27 11 4 39 13 61 19 38 9 42 13 48 50 4 26 11 40 21 40 23
0 29 -27 17 -68 -6 -20 -10 -38 -8 -40 3 -2 143 28 313 67 242 55 311 74 324
90 18 22 147 57 160 44 3 -5 19 -62 33 -128 45 -198 55 -211 156 -202 72 6
122 33 135 73 5 16 10 30 11 32 1 2 14 -9 29 -24 24 -24 32 -26 85 -21 99 9
150 46 150 111 0 12 -13 80 -30 152 -17 74 -25 130 -20 132 5 2 20 12 32 22
22 17 22 20 10 88 -6 39 -20 94 -29 124 -16 48 -21 53 -51 56 -40 4 -42 9 -78
166 -39 174 -73 201 -206 160z"/>
<path d="M4257 5078 c-13 -216 -8 -377 17 -560 13 -97 28 -183 32 -190 4 -7
77 -113 161 -236 l152 -223 -35 -177 c-38 -190 -42 -207 -49 -201 -2 2 -9 54
-15 114 -19 179 -48 261 -121 340 -79 86 -188 135 -298 135 -73 0 -292 -18
-356 -30 -27 -5 -138 -19 -245 -30 -107 -11 -262 -27 -344 -35 -82 -9 -150
-14 -152 -12 -9 8 -25 275 -20 320 7 67 55 161 123 240 120 142 123 147 123
193 0 34 -7 51 -30 78 -40 45 -86 60 -170 54 -170 -12 -295 -134 -336 -326
-18 -89 -18 -252 2 -439 9 -85 15 -156 12 -158 -3 -3 -45 -10 -94 -16 -49 -6
-90 -12 -91 -13 -1 -1 17 -177 41 -391 24 -215 51 -462 60 -550 10 -88 19
-161 20 -163 2 -1 82 6 177 17 96 11 298 34 449 51 151 16 298 35 325 40 28 5
174 24 325 40 151 17 293 36 315 42 65 17 115 47 177 106 32 30 58 51 58 46 0
-5 -38 -200 -85 -434 -47 -233 -83 -426 -80 -428 5 -5 715 11 1153 25 153 5
192 9 192 20 0 7 -39 260 -86 560 -73 469 -94 579 -144 773 -32 124 -60 232
-62 241 -3 19 37 65 228 259 l133 135 64 318 64 317 -62 0 -63 0 -93 -220 -94
-220 -181 -119 -182 -119 -158 5 -159 6 -142 104 c-138 101 -142 105 -157 156
-8 29 -44 158 -80 287 -35 129 -72 262 -81 296 l-17 61 -50 12 c-27 6 -53 11
-57 11 -4 0 -11 -51 -14 -112z m17 -1495 c9 -87 19 -170 22 -185 5 -25 3 -28
-20 -28 -22 0 -25 5 -31 48 -3 26 -8 62 -11 80 l-5 33 -62 -6 c-92 -10 -89 -7
-82 -72 3 -32 8 -68 11 -80 4 -19 0 -23 -20 -23 -28 0 -28 -1 -51 209 -17 145
-14 170 18 158 10 -4 17 -29 22 -81 l7 -76 32 0 c18 0 54 3 80 6 36 5 45 10
42 23 -2 9 -7 46 -11 84 -6 66 -6 67 17 67 24 0 25 -3 42 -157z m-316 105 c-2
-19 -10 -24 -46 -26 -37 -3 -42 -6 -38 -25 3 -12 10 -69 16 -127 6 -58 13
-121 16 -141 4 -31 2 -37 -15 -42 -12 -3 -23 -2 -25 2 -3 4 -13 79 -22 165
l-18 158 -48 -6 c-43 -6 -48 -5 -48 13 0 15 9 22 33 26 28 5 147 20 185 24 8
1 12 -7 10 -21z m-334 -50 c3 -18 10 -78 16 -133 6 -55 13 -114 17 -132 l5
-32 65 6 c60 6 65 5 61 -13 -3 -20 -51 -32 -134 -33 l-40 -1 -17 163 c-22 205
-22 207 3 207 14 0 21 -9 24 -32z m-142 -158 c86 -194 83 -186 58 -193 -18 -4
-25 3 -45 48 l-23 54 -59 -6 c-32 -3 -60 -8 -63 -10 -3 -2 -10 -28 -15 -56 -8
-42 -15 -53 -33 -55 -12 -2 -22 0 -22 4 0 8 57 312 66 352 4 19 10 23 36 20
30 -3 34 -9 100 -158z m-274 118 c3 -14 -9 -18 -67 -24 -78 -7 -76 -4 -65 -87
4 -27 11 -44 18 -42 6 2 34 6 62 9 45 6 52 4 57 -13 5 -21 -24 -31 -89 -31
-32 0 -34 -2 -34 -34 0 -18 3 -48 6 -65 l7 -32 73 6 c69 7 74 6 74 -12 0 -18
-10 -21 -92 -31 -51 -6 -96 -7 -99 -4 -9 10 -44 351 -36 358 8 8 112 22 152
20 19 -1 31 -7 33 -18z m-284 -45 c8 -53 36 -294 36 -315 0 -12 -8 -18 -24
-18 -22 0 -24 4 -30 81 l-7 80 -47 -6 c-26 -3 -61 -8 -78 -11 l-30 -4 9 -77
c7 -60 6 -78 -5 -84 -7 -5 -17 -7 -23 -6 -5 2 -18 69 -27 148 -9 79 -19 160
-21 181 -4 31 -2 37 18 40 21 4 24 0 29 -41 16 -118 17 -122 34 -117 10 2 43
7 75 11 64 7 61 1 48 108 -8 62 -6 67 20 67 12 0 19 -11 23 -37z"/>
<path d="M3369 3505 l-15 -85 25 0 c14 0 36 3 49 6 26 7 25 13 -17 104 l-26
59 -16 -84z"/>
<path d="M7798 5028 c-27 -6 -48 -16 -48 -23 0 -7 16 -156 35 -331 19 -175 35
-329 35 -341 0 -14 63 -118 150 -247 l149 -223 -47 -129 -47 -129 22 -55 c13
-30 26 -72 29 -92 8 -46 18 -48 32 -9 27 76 317 698 332 712 16 14 13 15 -39
11 -31 -2 -63 -8 -71 -12 -12 -6 -48 20 -135 96 -66 58 -128 113 -138 123 -12
12 -46 123 -97 321 -44 166 -82 311 -85 321 -7 21 -9 21 -77 7z"/>
<path d="M8350 4943 c-179 -40 -170 -24 -146 -266 10 -100 20 -185 23 -189 7
-12 92 3 188 32 50 16 121 35 159 44 68 16 70 16 92 -5 31 -29 57 -110 58
-181 1 -32 5 -58 11 -58 5 0 34 26 66 58 70 72 94 136 86 224 -4 43 -13 71
-34 101 -15 23 -41 69 -58 102 -34 69 -61 83 -157 84 -43 1 -73 9 -129 36 -41
19 -78 34 -84 34 -5 -1 -39 -8 -75 -16z"/>
<path d="M6490 4843 c-34 -13 -71 -47 -88 -79 -10 -19 -33 -42 -52 -52 -19
-11 -53 -45 -75 -76 l-40 -58 3 -105 3 -106 -36 -37 c-28 -29 -38 -49 -42 -82
-5 -40 -3 -45 21 -56 33 -15 110 -16 137 -2 23 13 23 27 3 128 -12 61 -13 88
-5 119 12 45 62 106 105 127 27 14 33 13 90 -16 123 -61 144 -93 123 -183 -7
-30 -7 -49 -1 -53 28 -20 54 -68 54 -102 l0 -36 107 -13 c128 -15 133 -12 133
83 0 49 -5 67 -27 100 -27 38 -28 45 -25 140 3 129 -5 149 -77 186 -31 16 -83
56 -116 90 -33 34 -72 68 -87 76 -27 14 -80 17 -108 7z"/>
<path d="M1070 4713 c-1 -5 -11 -92 -23 -196 l-23 -187 45 -36 46 -35 28 112
c15 62 29 115 32 117 2 2 72 -4 154 -14 124 -14 152 -21 156 -35 15 -45 32
-44 114 10 63 42 80 58 85 83 15 76 13 80 -83 136 l-90 52 -220 0 c-122 0
-221 -3 -221 -7z"/>
<path d="M6350 4266 c0 -2 8 -10 18 -17 15 -13 16 -12 3 4 -13 16 -21 21 -21
13z"/>
<path d="M7268 4219 c-159 -83 -254 -196 -266 -319 -6 -62 2 -91 34 -129 87
-104 239 2 300 208 31 105 54 291 37 291 -5 -1 -52 -23 -105 -51z"/>
<path d="M8673 4146 c-1 -18 -24 -85 -51 -148 -28 -63 -57 -139 -66 -168 -19
-65 -20 -167 -2 -278 9 -58 10 -84 3 -89 -6 -4 -83 -37 -171 -74 -88 -37 -162
-72 -164 -77 -1 -5 7 -34 18 -65 l21 -55 137 30 c75 16 151 32 167 35 l31 5
35 -246 35 -246 -319 -2 c-251 -2 -321 -6 -325 -16 -3 -10 11 -11 65 -5 118
14 399 8 508 -11 164 -28 227 -51 331 -122 53 -35 102 -64 109 -64 25 0 30 48
29 255 -3 390 -72 842 -169 1094 -74 194 -134 281 -193 281 -24 0 -27 -4 -29
-34z"/>
<path d="M6258 4135 c-63 -42 -129 -146 -201 -317 -85 -197 -134 -387 -163
-628 -17 -148 -21 -692 -5 -840 6 -52 11 -148 11 -212 l0 -117 71 30 c40 16
77 29 83 29 7 0 29 -88 55 -212 l44 -213 -2 -331 -2 -331 68 -6 c37 -4 96 -7
129 -7 l62 0 6 98 c18 262 36 686 37 847 1 99 4 209 8 245 6 63 8 57 49 -195
34 -205 48 -331 68 -595 33 -454 26 -416 78 -424 23 -4 90 -8 148 -11 l105 -4
27 222 c54 457 53 399 23 773 -15 187 -27 350 -27 363 0 23 1 23 87 19 l87 -5
-50 17 c-75 26 -133 58 -201 111 l-62 48 -83 -9 c-141 -17 -127 -23 -224 98
-102 125 -129 179 -154 305 -20 98 -45 325 -38 333 3 2 24 -3 48 -11 58 -20
58 -20 69 23 28 102 31 94 -53 147 l-76 47 0 147 c0 240 19 574 33 583 9 6 8
8 -3 8 -9 0 -32 -11 -52 -25z"/>
<path d="M6649 4134 c30 -38 66 -159 92 -312 21 -125 24 -133 44 -128 11 3 47
8 78 12 31 4 57 8 57 11 0 9 -62 231 -72 258 -21 55 -50 87 -126 136 -84 55
-103 61 -73 23z"/>
<path d="M6448 4133 c7 -3 16 -2 19 1 4 3 -2 6 -13 5 -11 0 -14 -3 -6 -6z"/>
<path d="M1923 3621 c-28 -4 -54 -9 -58 -12 -3 -3 1 -59 8 -123 15 -133 25
-120 -88 -131 -33 -3 -75 -9 -94 -12 l-34 -6 6 -70 c3 -39 10 -73 14 -77 4 -4
55 -2 113 6 58 7 108 10 111 6 4 -4 12 -56 18 -117 7 -60 14 -112 16 -115 4
-6 136 8 143 15 2 2 -1 47 -8 102 -6 54 -12 107 -13 118 -2 21 10 24 157 40
l69 7 -7 76 c-3 41 -8 77 -10 79 -2 2 -54 -3 -115 -10 -81 -10 -114 -11 -116
-3 -2 6 -8 58 -15 116 -13 113 -15 121 -33 119 -7 -1 -35 -5 -64 -8z"/>
<path d="M6218 853 c-2 -10 2 -54 9 -98 21 -130 16 -121 67 -117 l44 4 7 63
c12 120 -1 144 -88 160 -29 6 -36 4 -39 -12z"/>
<path d="M1340 738 c-11 -23 -19 -43 -17 -44 1 -1 55 -27 119 -57 l117 -55 16
24 c9 14 15 29 13 33 -11 28 -113 124 -140 132 -66 19 -86 13 -108 -33z"/>
<path d="M4667 682 l-37 -38 34 -33 34 -33 66 34 c63 32 66 34 66 71 l0 37
-63 0 c-60 0 -65 -2 -100 -38z"/>
<path d="M9120 681 c-51 -23 -71 -39 -93 -72 l-27 -43 46 -28 45 -29 66 53
c64 52 65 54 59 92 -7 42 -13 56 -24 56 -4 0 -36 -14 -72 -29z"/>
<path d="M2640 662 c0 -35 5 -42 52 -74 l51 -36 33 25 33 25 -24 32 c-17 22
-41 37 -78 49 -30 9 -57 17 -60 17 -4 0 -7 -17 -7 -38z"/>
<path d="M8125 650 l-39 -40 34 -35 c19 -19 40 -35 47 -35 8 0 45 16 83 35 69
35 70 36 70 75 l0 40 -78 0 c-78 0 -78 0 -117 -40z"/>
<path d="M997 673 c-3 -5 -8 -29 -12 -54 l-7 -46 115 -21 c146 -28 144 -28
152 9 4 17 5 32 3 33 -1 1 -33 21 -70 44 -58 36 -75 42 -122 42 -30 0 -57 -3
-59 -7z"/>
<path d="M6700 671 c-24 -7 -36 -32 -39 -87 -1 -22 2 -23 254 -48 6 -1 11 15
13 34 3 34 1 36 -71 73 -71 36 -106 42 -157 28z"/>
<path d="M3180 610 c0 -26 7 -33 59 -60 l59 -29 26 33 25 33 -28 27 c-23 22
-36 26 -84 26 -57 0 -57 0 -57 -30z"/>
<path d="M5110 599 c0 -34 3 -36 70 -69 l70 -34 35 34 35 34 -31 32 c-29 30
-37 33 -105 36 l-74 3 0 -36z"/>
</g>
</svg>
